HIERARCHY
ROOT Hips
{
	OFFSET -0.001795 -0.223333 0.028219
	CHANNELS 6 Xposition Yposition Zposition Zrotation Yrotation Xrotation 
	JOINT LeftUpLeg
	{
		OFFSET 0.069520 -0.091406 -0.006815
		CHANNELS 3 Zrotation Yrotation Xrotation
		JOINT LeftLeg
		{
			OFFSET 0.034277 -0.375199 -0.004496
			CHANNELS 3 Zrotation Yrotation Xrotation
			JOINT LeftFoot
			{
				OFFSET -0.013596 -0.397961 -0.043693
				CHANNELS 3 Zrotation Yrotation Xrotation
				JOINT LeftToe
				{
					OFFSET 0.026358 -0.055791 0.119288
					CHANNELS 3 Zrotation Yrotation Xrotation
					End Site
					{
						OFFSET 0.000000 0.000000 0.000000
					}
				}
			}
		}
	}
	JOINT RightUpLeg
	{
		OFFSET -0.067670 -0.090522 -0.004320
		CHANNELS 3 Zrotation Yrotation Xrotation
		JOINT RightLeg
		{
			OFFSET -0.038290 -0.382569 -0.008850
			CHANNELS 3 Zrotation Yrotation Xrotation
			JOINT RightFoot
			{
				OFFSET 0.015774 -0.398415 -0.042312
				CHANNELS 3 Zrotation Yrotation Xrotation
				JOINT RightToe
				{
					OFFSET -0.025372 -0.048144 0.123348
					CHANNELS 3 Zrotation Yrotation Xrotation
					End Site
					{
						OFFSET 0.000000 0.000000 0.000000
					}
				}
			}
		}
	}
	JOINT Spine
	{
		OFFSET -0.002533 0.108963 -0.026696
		CHANNELS 3 Zrotation Yrotation Xrotation
		JOINT Spine1
		{
			OFFSET 0.005487 0.135180 0.001092
			CHANNELS 3 Zrotation Yrotation Xrotation
			JOINT Spine2
			{
				OFFSET 0.001457 0.052922 0.025425
				CHANNELS 3 Zrotation Yrotation Xrotation
				JOINT Neck
				{
					OFFSET -0.002778 0.213870 -0.042857
					CHANNELS 3 Zrotation Yrotation Xrotation
					JOINT Head
					{
						OFFSET 0.005152 0.064970 0.051349
						CHANNELS 3 Zrotation Yrotation Xrotation
						End Site
						{
							OFFSET 0.000000 0.000000 0.000000
						}
					}
				}
				JOINT LeftShoulder
				{
					OFFSET 0.078845 0.121749 -0.034090
					CHANNELS 3 Zrotation Yrotation Xrotation
					JOINT LeftArm
					{
						OFFSET 0.090977 0.030469 -0.008868
						CHANNELS 3 Zrotation Yrotation Xrotation
						JOINT LeftForeArm
						{
							OFFSET 0.259612 -0.012772 -0.027456
							CHANNELS 3 Zrotation Yrotation Xrotation
							JOINT LeftHand
							{
								OFFSET 0.249234 0.008986 -0.001171
								CHANNELS 3 Zrotation Yrotation Xrotation
								End Site
								{
									OFFSET 0.000000 0.000000 0.000000
								}
							}
						}
					}
				}
				JOINT RightShoulder
				{
					OFFSET -0.081759 0.118833 -0.038615
					CHANNELS 3 Zrotation Yrotation Xrotation
					JOINT RightArm
					{
						OFFSET -0.096012 0.032551 -0.009143
						CHANNELS 3 Zrotation Yrotation Xrotation
						JOINT RightForeArm
						{
							OFFSET -0.253742 -0.013329 -0.021401
							CHANNELS 3 Zrotation Yrotation Xrotation
							JOINT RightHand
							{
								OFFSET -0.255298 0.007772 -0.005559
								CHANNELS 3 Zrotation Yrotation Xrotation
								End Site
								{
									OFFSET 0.000000 0.000000 0.000000
								}
							}
						}
					}
				}
			}
		}
	}
}
MOTION
Frames: 10
Frame Time: 0.050000
0.021883 0.922220 -0.164832 1.657129 -23.264258 24.845238 14.905524 2.998857 -28.258762 -5.091807 0.724093 -2.845896 2.315085 8.586364 37.374402 0.000000 0.000000 0.000000 -18.001260 2.924947 -39.147286 10.410054 -0.627978 5.305764 -3.933620 -18.221072 22.943915 0.000000 0.000000 0.000000 9.028370 -1.796827 42.851238 -3.770982 1.038833 -23.442961 -4.920617 8.577781 28.260462 24.404822 -6.922004 -42.063743 0.000000 0.000000 0.000000 8.380397 -26.471079 7.858329 -32.959901 -42.145781 5.880560 31.161511 -45.317131 -10.135768 0.000000 0.000000 0.000000 -4.738408 9.488022 3.497371 14.322286 49.329840 0.085247 -33.273734 28.911441 -6.940832 0.000000 0.000000 0.000000 
0.020694 0.923549 -0.167273 1.507424 -22.899993 24.501792 15.177039 2.943229 -27.714833 -5.020531 0.705953 -3.398586 2.022143 8.406409 37.755352 0.000000 0.000000 0.000000 -17.496461 2.880000 -38.219509 10.293379 -0.592153 4.375126 -3.890238 -18.110486 23.226383 0.000000 0.000000 0.000000 8.476400 -1.631947 42.532424 -3.794191 1.053437 -23.629198 -5.401076 7.984949 28.522379 24.960493 -7.526870 -41.071748 0.000000 0.000000 0.000000 9.541169 -26.461389 7.540091 -32.200930 -42.310515 5.811709 29.780791 -44.235732 -9.318407 0.000000 0.000000 0.000000 -4.972457 9.297618 3.429391 13.383425 49.311809 -0.353695 -34.083555 30.051940 -7.544954 0.000000 0.000000 0.000000 
0.019566 0.925425 -0.169620 1.112395 -22.689457 24.240520 15.578553 2.898398 -26.835358 -4.770468 0.667853 -4.390346 1.786436 8.271216 38.265584 0.000000 0.000000 0.000000 -16.636972 2.929868 -37.393551 9.981738 -0.540417 3.564249 -3.687475 -17.839070 23.653613 0.000000 0.000000 0.000000 7.827765 -1.387744 42.334140 -3.671214 1.029637 -23.577244 -5.957190 7.231164 28.314761 25.034720 -7.951391 -39.888122 0.000000 0.000000 0.000000 11.134083 -26.204068 7.054179 -31.854798 -42.291318 5.913390 28.636291 -42.944282 -8.561130 0.000000 0.000000 0.000000 -4.998589 9.164175 3.394608 12.832812 49.956932 -0.621666 -34.437343 30.392809 -7.808533 0.000000 0.000000 0.000000 
0.018792 0.927332 -0.171826 0.735562 -22.586260 24.000445 15.471756 2.722693 -25.987763 -3.710560 0.550498 -5.367688 1.612688 8.155698 38.713624 0.000000 0.000000 0.000000 -16.024048 2.946718 -36.556018 9.981649 -0.502748 2.606683 -3.471911 -17.575238 24.225048 0.000000 0.000000 0.000000 7.049167 -1.069249 42.006973 -3.524210 1.008583 -23.821225 -6.221280 6.512489 28.607028 25.665216 -8.925659 -37.985081 0.000000 0.000000 0.000000 13.191495 -26.279272 6.501825 -31.313985 -42.281966 5.967556 28.194758 -40.593840 -7.890601 0.000000 0.000000 0.000000 -4.917959 9.122798 3.385830 12.827667 50.707538 -0.750704 -34.251265 31.336886 -8.105992 0.000000 0.000000 0.000000 
0.018780 0.929384 -0.174201 0.501012 -22.647246 23.511056 15.586944 2.647136 -25.192649 -3.423082 0.528381 -5.855101 1.476926 8.077679 39.156916 0.000000 0.000000 0.000000 -15.249261 2.988160 -35.639814 9.454675 -0.440823 1.856627 -3.112066 -17.136249 24.645744 0.000000 0.000000 0.000000 6.296761 -0.734555 41.670206 -3.502945 0.998064 -23.230727 -6.465359 5.571700 28.153971 25.218917 -9.311411 -36.352049 0.000000 0.000000 0.000000 14.863416 -26.173930 6.003600 -30.624432 -42.556250 6.114708 27.465195 -36.856937 -6.860302 0.000000 0.000000 0.000000 -5.010553 9.303477 3.454564 13.920487 52.268811 -0.411458 -34.183930 31.554955 -8.195931 0.000000 0.000000 0.000000 
0.019647 0.931090 -0.176928 0.200694 -22.968919 23.584779 15.568570 2.649841 -24.975616 -2.881468 0.483568 -6.255670 1.490529 8.100197 39.613515 0.000000 0.000000 0.000000 -14.732161 3.078044 -35.248492 9.127422 -0.378111 0.790966 -2.705700 -16.741314 25.344430 0.000000 0.000000 0.000000 5.782127 -0.488720 41.019979 -3.442164 0.987075 -23.455166 -6.552839 5.062796 28.602714 24.638598 -9.701399 -34.629486 0.000000 0.000000 0.000000 16.895622 -25.729314 5.294521 -29.794608 -43.479430 6.378250 26.444825 -31.681093 -5.561553 0.000000 0.000000 0.000000 -5.558559 9.179031 3.436601 14.106930 54.420372 -0.475597 -33.123832 30.962236 -7.764225 0.000000 0.000000 0.000000 
0.020860 0.933425 -0.179861 -0.151862 -22.914744 23.697299 15.543478 2.633508 -24.926746 -2.235027 0.432575 -6.641690 1.297603 8.001712 40.126457 0.000000 0.000000 0.000000 -14.362030 3.114899 -35.038691 9.095972 -0.350685 0.095856 -2.485018 -16.585301 26.330818 0.000000 0.000000 0.000000 5.302875 -0.301891 40.810057 -3.100557 0.909119 -23.169600 -6.205972 4.932427 28.219423 23.972226 -9.839092 -33.062622 0.000000 0.000000 0.000000 19.286148 -25.225245 4.602388 -29.710856 -44.782637 6.952236 25.356820 -25.951318 -4.316719 0.000000 0.000000 0.000000 -6.447639 8.893180 3.373911 15.935656 56.596112 0.430841 -32.440987 29.845348 -7.200012 0.000000 0.000000 0.000000 
0.021858 0.935150 -0.182496 -0.649102 -23.192831 24.090761 16.004456 2.815799 -25.079879 -2.215873 0.435822 -6.789910 1.307904 8.049063 40.586216 0.000000 0.000000 0.000000 -13.779730 3.238159 -34.966666 8.888704 -0.300656 -0.867640 -2.105375 -16.273285 27.179774 0.000000 0.000000 0.000000 4.703103 -0.020942 40.490336 -2.837288 0.853418 -23.458261 -6.134350 4.950299 28.309189 23.226049 -10.213387 -30.725855 0.000000 0.000000 0.000000 20.588322 -24.642199 4.158407 -29.078530 -45.655173 7.121177 23.874711 -21.718231 -3.340343 0.000000 0.000000 0.000000 -6.363923 9.142913 3.462419 16.287154 57.843762 0.614650 -31.419702 28.599485 -6.574633 0.000000 0.000000 0.000000 
0.022393 0.937564 -0.184561 -0.697847 -22.509440 24.544340 15.833846 2.741528 -25.512359 -1.717926 0.415492 -7.471397 0.805088 7.795909 41.185771 0.000000 0.000000 0.000000 -13.618703 3.188638 -34.921773 8.581488 -0.280101 -1.727268 -2.235019 -16.494601 28.199034 0.000000 0.000000 0.000000 4.737754 -0.216795 39.770794 -2.460965 0.779003 -23.318162 -6.096559 5.390121 28.019594 23.029391 -10.177479 -30.222939 0.000000 0.000000 0.000000 20.990135 -24.420243 4.112172 -28.865470 -46.560195 7.203932 23.329631 -19.705384 -2.954569 0.000000 0.000000 0.000000 -6.431421 9.237397 3.480355 17.094503 58.299120 1.214311 -30.221510 26.687324 -5.732988 0.000000 0.000000 0.000000 
0.022642 0.939457 -0.185971 -1.034331 -22.113512 24.875801 16.065130 2.783051 -25.654863 -1.465987 0.413160 -7.914885 0.509633 7.656998 41.599584 0.000000 0.000000 0.000000 -13.420693 3.166362 -34.719100 8.695605 -0.272681 -2.163466 -1.833805 -15.869928 28.145394 0.000000 0.000000 0.000000 4.591852 -0.243733 39.495868 -2.343354 0.755889 -23.305862 -5.998544 5.540885 27.932719 23.114342 -10.568358 -28.974842 0.000000 0.000000 0.000000 20.894877 -24.349211 4.164961 -28.913197 -46.900199 7.246790 23.958816 -19.480712 -3.013959 0.000000 0.000000 0.000000 -6.315452 9.340499 3.507712 16.522387 58.483763 1.016132 -28.600238 24.171431 -4.770731 0.000000 0.000000 0.000000 
